<?xml version="1.0" encoding="utf-8"?>
<!-- Generator: Adobe Illustrator 27.4.1, SVG Export Plug-In . SVG Version: 6.00 Build 0)  -->
<svg version="1.1" id="Layer_1" xmlns="http://www.w3.org/2000/svg" xmlns:xlink="http://www.w3.org/1999/xlink" x="0px" y="0px"
	 viewBox="0 0 30 30" style="enable-background:new 0 0 30 30;" xml:space="preserve">
<style type="text/css">
	.st0{clip-path:url(#SVGID_00000009554306048466658990000005134600268171090087_);}
	.st1{fill:#EAEAEA;}
	.st2{fill:#D2D2D2;}
	.st3{fill:#9C9C9C;}
	.st4{fill:#ABABAB;}
	.st5{fill:#BFBFBF;}
</style>
<g>
	<defs>
		<rect id="SVGID_1_" width="30" height="30"/>
	</defs>
	<clipPath id="SVGID_00000035509008349769578660000017484621592557008033_">
		<use xlink:href="#SVGID_1_"  style="overflow:visible;"/>
	</clipPath>
	<g style="clip-path:url(#SVGID_00000035509008349769578660000017484621592557008033_);">
		<path class="st1" fill="currentColor" d="M14.9,0.1l13.8,8.7c0.3,0.2,0.4,0.7,0.2,1c-0.1,0.2-0.4,0.3-0.6,0.3H0.7C0.3,10.2,0,9.8,0,9.4
			C0,9.2,0.1,9,0.3,8.8l13.8-8.7C14.4,0,14.7,0,14.9,0.1z"/>
		<path class="st2" fill="currentColor" d="M14.5,1.8L4,8.5h21.1L14.5,1.8z"/>
		<path class="st3" fill="currentColor" d="M15.1,5h-1.2c-0.5,0-0.8,0.4-0.8,0.8c0,0.5,0.4,0.8,0.8,0.8h1.2c0.5,0,0.8-0.4,0.8-0.8C16,5.4,15.6,5,15.1,5z
			"/>
		<path class="st4" fill="currentColor" d="M6.5,13.5H3.2V25h3.3V13.5z"/>
		<path class="st4" fill="currentColor" d="M13,13.5H9.6V25H13V13.5z"/>
		<path class="st4" fill="currentColor" d="M19.4,13.5h-3.3V25h3.3V13.5z"/>
		<path class="st4" fill="currentColor" d="M25.8,13.5h-3.3V25h3.3V13.5z"/>
		<path class="st5" fill="currentColor" d="M27,10.2H2v3.3h25V10.2z"/>
		<path class="st2" fill="currentColor" d="M28.3,25H0.7C0.3,25,0,25.4,0,25.8v2.5C0,28.7,0.3,29,0.7,29h27.6c0.4,0,0.7-0.3,0.7-0.7v-2.5
			C29,25.4,28.7,25,28.3,25z"/>
	</g>
</g>
</svg>
