<?xml version="1.0" encoding="utf-8"?>
<!-- Generator: Adobe Illustrator 27.4.1, SVG Export Plug-In . SVG Version: 6.00 Build 0)  -->
<svg version="1.1" id="Layer_1" xmlns="http://www.w3.org/2000/svg" xmlns:xlink="http://www.w3.org/1999/xlink" x="0px" y="0px"
	 viewBox="0 0 72 71" style="enable-background:new 0 0 72 71;" xml:space="preserve">
<style type="text/css">
	.st0{clip-path:url(#SVGID_00000123426183626861655730000008622521472373339570_);}
	<!-- .st1{opacity:0.35;} -->
</style>
<g>
	<defs>
		<rect id="SVGID_1_" x="0.2" width="71" height="71"/>
	</defs>
	<clipPath id="SVGID_00000098934926298659080120000017139582771983085698_">
		<use xlink:href="#SVGID_1_"  style="overflow:visible;"/>
	</clipPath>
	<g style="clip-path:url(#SVGID_00000098934926298659080120000017139582771983085698_);">
		<g class="st1">
			<rect fill="currentColor" x="21.3" y="7.3" width="28.4" height="2.5"/>
		</g>
		<g class="st1">
			<path fill="currentColor" d="M61.6,70.6h-52c-5.1,0-9.2-4.1-9.2-9.2V16.5c0-5.1,4.1-9.2,9.2-9.2h3.2v2.5H9.6c-3.7,0-6.8,3-6.8,6.8v44.8
				c0,3.7,3,6.8,6.8,6.8h52c3.7,0,6.8-3,6.8-6.8V16.5c0-3.7-3-6.8-6.8-6.8h-3.2V7.3h3.2c5.1,0,9.2,4.1,9.2,9.2v44.8
				C70.8,66.4,66.7,70.6,61.6,70.6z"/>
		</g>
		<g class="st1">
			<path fill="currentColor" d="M41.8,26.5c-0.7,0-1.2-0.6-1.2-1.2c0-0.7,0.6-1.2,1.2-1.2V26.5z M41.8,24h26.5v2.5H41.8V24z"/>
		</g>
		<g class="st1">
			<path fill="currentColor" d="M29.3,24c0.7,0,1.2,0.6,1.2,1.2c0,0.7-0.6,1.2-1.2,1.2V24z M2.8,24h26.5v2.5H2.8V24z"/>
		</g>
		<g class="st1">
			<path fill="currentColor" d="M35.6,26.5L35.6,26.5c-0.7,0-1.3-0.6-1.3-1.2s0.6-1.2,1.2-1.2s1.3,0.6,1.3,1.2S36.2,26.5,35.6,26.5z"/>
		</g>
		<g class="st1">
			<path fill="currentColor" d="M17.1,16.4c-2.4,0-4.3-1.9-4.3-4.3V4.4c0-2.4,1.9-4.3,4.3-4.3s4.3,1.9,4.3,4.3v7.8C21.3,14.5,19.4,16.4,17.1,16.4z
				 M17.1,2.6c-1,0-1.8,0.8-1.8,1.8v7.8c0,1,0.8,1.8,1.8,1.8s1.8-0.8,1.8-1.8V4.4C18.8,3.4,18,2.6,17.1,2.6z"/>
		</g>
		<g class="st1">
			<path fill="currentColor" d="M54.1,16.4c-2.4,0-4.3-1.9-4.3-4.3V4.4c0-2.4,1.9-4.3,4.3-4.3c2.4,0,4.3,1.9,4.3,4.3v7.8C58.3,14.5,56.4,16.4,54.1,16.4z
				 M54.1,2.6c-1,0-1.8,0.8-1.8,1.8v7.8c0,1,0.8,1.8,1.8,1.8s1.8-0.8,1.8-1.8V4.4C55.8,3.4,55,2.6,54.1,2.6z"/>
		</g>
		<g class="st1">
			<path fill="currentColor" d="M29.3,59.5c-0.6,0-1.3-0.2-1.8-0.6c-0.9-0.7-1.4-1.8-1.2-3l0.9-5.3l-3.9-3.8c-0.8-0.8-1.1-2-0.8-3.1
				c0.4-1.1,1.3-1.9,2.5-2.1l5.4-0.8l2.4-4.9c0.5-1,1.6-1.7,2.7-1.7s2.2,0.6,2.7,1.7l2.4,4.9l5.4,0.8c1.2,0.2,2.1,1,2.5,2.1
				c0.4,1.1,0.1,2.3-0.8,3.1l-3.9,3.8l0.9,5.3c0.2,1.1-0.3,2.3-1.2,3c-0.9,0.7-2.2,0.8-3.2,0.2l-4.8-2.5l-4.8,2.5
				C30.3,59.4,29.8,59.5,29.3,59.5z M35.6,36.8c-0.1,0-0.4,0-0.5,0.3l-2.7,5.5c-0.2,0.4-0.5,0.6-0.9,0.7l-6,0.9
				c-0.3,0-0.4,0.2-0.4,0.4s-0.1,0.3,0.1,0.6l4.4,4.2c0.3,0.3,0.4,0.7,0.4,1.1l-1,6c0,0.3,0.1,0.5,0.2,0.5c0.1,0.1,0.3,0.2,0.6,0
				l5.4-2.8c0.4-0.2,0.8-0.2,1.2,0l5.4,2.8c0.3,0.1,0.5,0,0.6,0c0.1-0.1,0.3-0.2,0.2-0.5l-1-6c-0.1-0.4,0.1-0.8,0.4-1.1L46,45
				c0.2-0.2,0.2-0.4,0.1-0.6s-0.1-0.3-0.4-0.4l-6-0.9c-0.4-0.1-0.8-0.3-0.9-0.7L36,37.1l0,0C35.9,36.9,35.7,36.8,35.6,36.8z"/>
		</g>
	</g>
</g>
</svg>
