<?xml version="1.0" encoding="utf-8"?>
<!-- Generator: Adobe Illustrator 27.4.1, SVG Export Plug-In . SVG Version: 6.00 Build 0)  -->
<svg version="1.1" id="Layer_1" xmlns="http://www.w3.org/2000/svg" xmlns:xlink="http://www.w3.org/1999/xlink" x="0px" y="0px"
	 viewBox="0 0 95 69" style="enable-background:new 0 0 95 69;" xml:space="preserve">
<g class="st0">
	<g>
		<path fill="currentColor" d="M12.2,63.3c-1,0-1.9-0.3-2.7-0.9c-1-0.8-1.7-1.9-1.9-3.2l-6.4-42c-0.4-2.6,1.3-5.1,3.9-5.5L73.2,0.5
			c1.2-0.2,2.4,0.1,3.4,0.8c1,0.8,1.7,1.9,1.9,3.2L79.3,9c0.1,0.7-0.4,1.3-1,1.4c-0.7,0.1-1.3-0.4-1.4-1l-0.7-4.5
			c-0.1-0.6-0.4-1.2-0.9-1.5c-0.5-0.3-1-0.5-1.5-0.4L5.5,14.2c-1.2,0.2-2,1.4-1.8,2.6l6.4,42c0.1,0.6,0.4,1.2,0.9,1.5
			c0.5,0.3,1,0.5,1.5,0.4l2.7-0.4c0.7-0.1,1.3,0.3,1.4,1c0.1,0.7-0.3,1.3-1,1.4L13,63.2C12.7,63.3,12.5,63.3,12.2,63.3z M78.9,16.3
			c-0.6,0-1.1-0.4-1.2-1.1l-0.4-2.7c-0.1-0.7,0.4-1.3,1-1.4c0.7-0.1,1.3,0.4,1.4,1l0.4,2.7c0.1,0.7-0.4,1.3-1,1.4
			C79,16.3,79,16.3,78.9,16.3z"/>
	</g>
</g>
<g class="st0">
	<path fill="currentColor" d="M89.8,68.2H23c-2.6,0-4.6-2.1-4.6-4.6V22.3c0-2.6,2.1-4.6,4.6-4.6h66.7c2.6,0,4.7,2.1,4.7,4.6v41.2
		C94.4,66.1,92.3,68.2,89.8,68.2z M23,20.2c-1.2,0-2.1,1-2.1,2.1v41.2c0,1.2,1,2.1,2.1,2.1h66.7c1.2,0,2.2-1,2.2-2.1V22.3
		c0-1.2-1-2.1-2.2-2.1H23z"/>
</g>
<g class="st0">
	<path fill="currentColor" d="M90.7,30.1h1.2v-2.5h-1.2V30.1z M36.7,27.6c-0.7,0-1.2,0.6-1.2,1.2c0,0.7,0.6,1.2,1.2,1.2V27.6z M87.6,41.2
		c0.7,0,1.2-0.6,1.2-1.2c0-0.7-0.6-1.2-1.2-1.2V41.2z M22.1,38.7h-1.2v2.5h1.2V38.7z M50.9,57.3c0.7,0,1.2-0.6,1.2-1.2
		s-0.6-1.2-1.2-1.2V57.3z M26.9,54.8c-0.7,0-1.2,0.6-1.2,1.2s0.6,1.2,1.2,1.2V54.8z M32.4,30.1c0.7,0,1.2-0.6,1.2-1.2
		c0-0.7-0.6-1.2-1.2-1.2V30.1z M26.3,27.6c-0.7,0-1.2,0.6-1.2,1.2c0,0.7,0.6,1.2,1.2,1.2V27.6z M90.7,27.6h-54v2.5h54V27.6z
		 M87.6,38.7H22.1v2.5h65.4V38.7z M50.9,54.8H26.9v2.5h24.1V54.8z M32.4,27.6h-6.1v2.5h6.1V27.6z"/>
</g>
</svg>
