<svg width="69" height="29" viewBox="0 0 69 29" fill="none" xmlns="http://www.w3.org/2000/svg">
<g clip-path="url(#clip0_8588_163557)">
<path d="M54.4108 11.415L56.678 14.6764L57.0781 15.3816L57.4781 14.6764L59.7453 11.415C60.6788 10.0928 62.2791 9.25543 64.0572 9.25543H67.9246L60.8121 18.7751L68.1024 28.3831H64.1461C62.4569 28.3831 60.8566 27.6338 59.9231 26.3557L57.4781 23.0503L57.1225 22.3451L56.7669 23.0503L54.3219 26.3557C53.3885 27.6338 51.7881 28.3831 50.0989 28.3831H46.1426L53.344 18.8633L46.2315 9.25543H50.0989C51.8771 9.25543 53.4774 10.0488 54.4108 11.415Z" fill="#329DE6"/>
<path d="M15.1586 21.3753C14.5362 21.155 13.825 21.2872 13.336 21.7719C12.5803 22.5212 11.5134 22.9619 10.3576 22.9619C8.04604 22.9619 6.17901 21.155 6.17901 18.9072C6.17901 16.6595 8.04604 14.8525 10.3576 14.8525C11.4689 14.8525 12.4914 15.2932 13.2471 15.9544C13.7805 16.4391 14.5806 16.6595 15.292 16.3951L20.004 14.7203C18.3592 11.1945 14.714 8.77045 10.491 8.77045C4.66759 8.77045 0 13.2659 0 18.8631C0 24.4604 4.66759 28.9559 10.4465 28.9559C14.6695 28.9559 18.2703 26.5318 19.9595 23.0942L15.1586 21.3753Z" fill="#F54C7F"/>
<path d="M34.7625 8.90274C33.0733 8.90274 31.5174 9.29939 30.1393 10.0045L30.1838 4.36322C30.1838 1.98328 28.2723 0 25.8274 0H23.827L23.6936 25.2097C23.6936 27.2371 25.3384 28.9118 27.3832 28.9118H29.2059V27.1049C30.7617 28.1186 32.6288 28.7356 34.6735 28.7356C40.1858 28.7796 44.6756 24.3723 44.7201 18.8632C44.7201 13.3982 40.2747 8.94681 34.7625 8.90274ZM34.6291 22.8738C32.4065 22.8738 30.6283 21.0669 30.6283 18.8632C30.6283 16.6596 32.4509 14.8967 34.6735 14.8967C36.8962 14.8967 38.6744 16.7036 38.6744 18.9073C38.6744 21.1109 36.8518 22.918 34.6291 22.8738Z" fill="#F99234"/>
</g>
<defs>
<clipPath id="clip0_8588_163557">
<rect width="68.15" height="29" fill="currentColor"/>
</clipPath>
</defs>
</svg>
