<svg width="41" height="41" viewBox="0 0 41 41" fill="none" xmlns="http://www.w3.org/2000/svg">
<rect width="41" height="41" rx="8" fill="currentColor"/>
<rect width="20" height="20" transform="translate(10.5 10.5)" fill="currentColor" fill-opacity="0.01"/>
<path fill-rule="evenodd" clip-rule="evenodd" d="M16.4096 13.0399C17.6605 12.3562 19.0634 11.9986 20.4889 12C21.7612 11.997 23.0179 12.2796 24.1664 12.8271C25.3149 13.3745 26.3258 14.1727 27.1246 15.163C27.9235 16.1532 28.4899 17.3101 28.782 18.5484C29.0741 19.7867 29.0845 21.0747 28.8125 22.3176C28.5404 23.5604 27.9928 24.7263 27.2101 25.7294C26.4274 26.7324 25.4295 27.5469 24.29 28.1128C23.1505 28.6787 21.8985 28.9816 20.6264 28.9992C19.3542 29.0168 18.0943 28.7485 16.9397 28.2142C16.5161 28.0257 16.0366 28.0055 15.5986 28.1576L13.2375 28.9509C13.0705 29.0055 12.8916 29.0127 12.7208 28.9719C12.5499 28.931 12.3937 28.8436 12.2695 28.7194C12.1453 28.5952 12.0579 28.439 12.0171 28.2681C11.9762 28.0973 11.9834 27.9185 12.038 27.7515L12.8314 25.3904C12.9835 24.9523 12.9632 24.4729 12.7747 24.0492C12.1768 22.7552 11.9143 21.3314 12.0117 19.9092C12.109 18.487 12.5629 17.1122 13.3315 15.9117C14.1001 14.7111 15.1587 13.7235 16.4096 13.0399ZM15.991 19C15.991 18.4477 16.4387 18 16.991 18H23.991C24.5433 18 24.991 18.4477 24.991 19C24.991 19.5523 24.5433 20 23.991 20H16.991C16.4387 20 15.991 19.5523 15.991 19ZM15.991 23C15.991 22.4477 16.4387 22 16.991 22H20.991C21.5433 22 21.991 22.4477 21.991 23C21.991 23.5523 21.5433 24 20.991 24H16.991C16.4387 24 15.991 23.5523 15.991 23Z" fill="#919191"/>
</svg>
