<?xml version="1.0" encoding="utf-8"?>
<!-- Generator: Adobe Illustrator 27.4.1, SVG Export Plug-In . SVG Version: 6.00 Build 0)  -->
<svg version="1.1" id="Layer_1" xmlns="http://www.w3.org/2000/svg" xmlns:xlink="http://www.w3.org/1999/xlink" x="0px" y="0px"
	 viewBox="0 0 88 68" style="enable-background:new 0 0 88 68;" xml:space="preserve">
<style type="text/css">
	.st0{clip-path:url(#SVGID_00000106856859502523965060000009908153297095721638_);}
	<!-- .st1{opacity:0.35;}
	.st2{fill-rule:evenodd;clip-rule:evenodd;} -->
</style>
<g>
	<defs>
		<rect id="SVGID_1_" x="0.2" width="87" height="68"/>
	</defs>
	<clipPath id="SVGID_00000041981196926462376570000006244078749018775698_">
		<use xlink:href="#SVGID_1_"  style="overflow:visible;"/>
	</clipPath>
	<g style="clip-path:url(#SVGID_00000041981196926462376570000006244078749018775698_);">
		<g class="st1">
			<path fill="currentColor" class="st2" d="M6.8,13.7c12.8,0,25.8,0,38.4,0l7.7,0c0.9,0,1.5,0.5,1.5,1.2c0,0.3-0.1,0.6-0.3,0.8
				c-0.3,0.3-0.7,0.4-1.4,0.4c-21,0-35.4,0-43.3,0l-2.1,0c-0.4,0-0.8,0-1.3,0.1c-2,0.4-3.4,2.1-3.4,4.2c0,2,0,27.7,0,37.9l0,2.5
				c0,3,1.7,4.7,4.6,4.7c19.7,0,39.5,0,59.2,0c2.9,0,4.6-1.7,4.6-4.6c0-6.2,0-26.8,0-26.9c0.1-0.7,0.6-1.2,1.2-1.2h0
				c0.6,0,1.2,0.5,1.2,1.1c0,0.2,0,18.2,0,25.6l0,1.4c0,4.3-2.8,7.2-7.1,7.2c-19.6,0-39.3,0-58.9,0c-4.9,0-7.4-2.9-7.4-7.2V19.5
				c0-0.2,0.2-0.6,0.2-0.8C1.2,15.7,3.8,13.7,6.8,13.7z M6.8,19.1c0.3,0,0.7,0.1,1,0.4c1.3,1.1,2.5,2.3,3.7,3.4
				c0.5,0.5,1,0.9,1.5,1.4l5.4,4.8c4.7,4.3,9.5,8.5,14.2,12.8c1.9,1.7,4,2.2,6.2,1.4c0.8-0.3,1.6-0.8,2.6-1.7
				c3.7-3.3,13.8-12.4,15.2-13.6l0.1-0.1c0.2-0.2,0.3-0.3,0.5-0.4c0.5-0.3,1.1-0.2,1.5,0.2c0.4,0.5,0.5,1,0.1,1.5
				c-0.1,0.2-0.3,0.4-0.5,0.6l-0.1,0.1c-1.7,1.5-5.9,5.3-12.7,11.4c-0.1,0.1-0.3,0.3-0.4,0.4L44.9,42l0.5,0.4
				c0.3,0.2,0.5,0.4,0.8,0.6c7,5.6,14.1,11.3,21.1,16.9l0.1,0.1c0.1,0.1,0.2,0.1,0.3,0.2c0.6,0.6,0.7,1.2,0.3,1.8
				c-0.5,0.6-1.2,0.6-1.8,0.1c-0.7-0.5-1.3-1-2-1.6c-0.3-0.2-0.6-0.5-0.8-0.7L43.6,44.2c-0.1-0.1-0.2-0.2-0.3-0.2l-0.3-0.2l-0.1,0.1
				c-1.8,1.6-3.7,2.4-5.9,2.4h0c-2.2,0-4.1-0.8-5.9-2.4L31,43.7l-1.3,1c-0.7,0.6-1.4,1.1-2.1,1.7l-3.5,2.8
				C18.8,53.4,13.4,57.7,8.1,62c-0.4,0.3-0.7,0.5-1,0.5c-0.6,0.1-1-0.2-1.3-0.8c-0.2-0.6-0.1-1.1,0.5-1.5l7.8-6.2
				c4.8-3.8,9.6-7.7,14.4-11.5c0.1-0.1,0.2-0.2,0.3-0.3c0.1-0.1,0.1-0.1,0.2-0.2l0.1-0.1L29,41.8c-0.1-0.1-0.2-0.1-0.3-0.2
				c-0.2-0.1-0.3-0.2-0.4-0.3c-6.3-5.7-12.6-11.4-19-17.1l-3-2.7c-0.1-0.1-0.1-0.1-0.2-0.2c-0.6-0.6-0.7-1.3-0.2-1.8
				C6.2,19.3,6.5,19.1,6.8,19.1z M72.3,0c3.2,0,6.3,1,8.9,2.9c3.2,2.4,5.3,5.8,5.9,9.8c0,0.2,0.2,1,0.2,2.2s-0.1,1.9-0.1,2.1
				c-0.1,0.4-0.2,0.9-0.3,1.3c-1.6,6.8-7.6,11.5-14.6,11.5c-0.2,0-0.4,0-0.5,0c-6.8-0.2-12.8-5.5-14-12.4c-0.7-3.9,0.2-7.9,2.6-11.2
				c2.3-3.3,5.8-5.4,9.7-6C70.7,0.1,71.5,0,72.3,0z M72.4,2.5L72.4,2.5c-3.4,0-6.5,1.3-8.8,3.6c-2.3,2.3-3.6,5.4-3.7,8.7
				c0,6.8,5.5,12.4,12.3,12.4h0c3.3,0,6.4-1.3,8.8-3.6c2.4-2.3,3.6-5.4,3.7-8.7C84.7,8.1,79.2,2.5,72.4,2.5z M72.3,8.2
				c0.2,0,0.3,0,0.5,0.1c0.6,0.2,0.8,0.7,0.8,1.5c0,2,0,4,0,6l0,3.2l0.1,0c0.1,0,0.2,0.1,0.3,0.1c0.1,0,0.3,0.1,0.3,0.2
				c0,0.1,0.1,0.2,0.1,0.2c0.2,0.4,0.5,0.8,0.5,1.1c0,0.7-0.6,1-1.2,1c-0.9,0-1.8,0-2.7,0c-0.7,0-1.1-0.4-1.2-1
				c-0.1-0.6,0.1-1.1,0.8-1.4c0.1,0,0.2-0.1,0.3-0.1c0.1,0,0.1,0,0.2-0.1l0.1,0v-6.8l-0.1,0c-0.8-0.3-1.2-0.7-1.3-1.1
				c-0.1-0.4,0.2-0.9,0.8-1.6c0.1-0.1,0.2-0.2,0.2-0.2C70.9,9.1,71,9,71.2,8.8C71.6,8.4,71.9,8.2,72.3,8.2z"/>
		</g>
	</g>
</g>
</svg>
