<?xml version="1.0" encoding="utf-8"?>
<!-- Generator: Adobe Illustrator 27.4.1, SVG Export Plug-In . SVG Version: 6.00 Build 0)  -->
<svg version="1.1" id="Layer_1" xmlns="http://www.w3.org/2000/svg" xmlns:xlink="http://www.w3.org/1999/xlink" x="0px" y="0px"
	 viewBox="0 0 25 20" style="enable-background:new 0 0 25 20;" xml:space="preserve">
<style type="text/css">
	<!-- .st0{fill-rule:evenodd;clip-rule:evenodd;} -->
</style>
<path fill="currentColor" class="st0" d="M8.2,0.5C7.6,0.5,7,1.1,7,1.8S7.6,3,8.2,3h15.5C24.4,3,25,2.4,25,1.8s-0.6-1.2-1.2-1.2H8.2z M0,10
	c0-0.7,0.6-1.2,1.2-1.2h22.5c0.7,0,1.2,0.6,1.2,1.2c0,0.7-0.6,1.2-1.2,1.2H1.2C0.6,11.2,0,10.7,0,10z M12,18.2
	c0-0.7,0.6-1.2,1.2-1.2h10.5c0.7,0,1.2,0.6,1.2,1.2s-0.6,1.2-1.2,1.2H13.2C12.6,19.5,12,18.9,12,18.2z"/>
</svg>
