<?xml version="1.0" encoding="utf-8"?>
<!-- Generator: Adobe Illustrator 27.4.1, SVG Export Plug-In . SVG Version: 6.00 Build 0)  -->
<svg version="1.1" id="Layer_1" xmlns="http://www.w3.org/2000/svg" xmlns:xlink="http://www.w3.org/1999/xlink" x="0px" y="0px"
	 viewBox="0 0 24 24" style="enable-background:new 0 0 24 24;" xml:space="preserve">
<g>
	<path fill="currentColor" d="M19,20H5c-0.8,0-1.6-0.3-2.1-0.9C2.3,18.6,2,17.8,2,17V8c0,0,0,0,0,0V7c0-0.8,0.3-1.6,0.9-2.1C3.4,4.3,4.2,4,5,4h14
		c0.8,0,1.6,0.3,2.1,0.9C21.7,5.4,22,6.2,22,7v1c0,0,0,0,0,0v9c0,0.8-0.3,1.6-0.9,2.1S19.8,20,19,20z M4,9.9V17
		c0,0.3,0.1,0.5,0.3,0.7C4.5,17.9,4.7,18,5,18h14c0.3,0,0.5-0.1,0.7-0.3S20,17.3,20,17V9.9l-6.3,4.2c-1,0.7-2.3,0.7-3.3,0L4,9.9z
		 M4,7.5l7.4,5c0.3,0.2,0.8,0.2,1.1,0l7.4-5V7c0-0.3-0.1-0.5-0.3-0.7C19.5,6.1,19.3,6,19,6H5C4.7,6,4.5,6.1,4.3,6.3
		C4.1,6.5,4,6.7,4,7V7.5z"/>
</g>
</svg>
