<?xml version="1.0" encoding="utf-8"?>
<!-- Generator: Adobe Illustrator 27.4.1, SVG Export Plug-In . SVG Version: 6.00 Build 0)  -->
<svg version="1.1" id="Layer_1" xmlns="http://www.w3.org/2000/svg" xmlns:xlink="http://www.w3.org/1999/xlink" x="0px" y="0px"
	 viewBox="0 0 66 69" style="enable-background:new 0 0 66 69;" xml:space="preserve">
<style type="text/css">
	<!-- .st0{opacity:0.35;} -->
</style>
<g class="st0">
	<path fill="currentColor" d="M48.7,68.2c-0.6,0-1.1-0.2-1.5-0.6l-6.6-6c-2.6,0.7-5.3,1-8.1,1c-17.8,0-32.2-14-32.2-31.2S14.7,0.1,32.5,0.1
		c17.8,0,32.2,14,32.2,31.2c0,4.7-1,9.2-3.1,13.4c-0.4,0.7-0.8,1.5-1.2,2.2c0,0-0.8,1.5-2.5,3.6c-1.6,2.1-2.9,3.2-2.9,3.2l0,0
		c-1.2,1.1-2.5,2.2-4,3.3l0.1,8.7C51.1,67,50,68.2,48.7,68.2C48.7,68.2,48.7,68.2,48.7,68.2z M41.2,58.8l7.4,6.7l-0.1-10l0.6-0.4
		c1.6-1,3-2.3,4.3-3.4l0,0c0,0,1.1-1,2.6-2.9c1.5-1.9,2.3-3.2,2.3-3.2c0.4-0.7,0.8-1.4,1.1-2c1.9-3.9,2.8-8,2.8-12.3
		c0-15.9-13.3-28.8-29.8-28.8S2.7,15.5,2.7,31.3c0,15.9,13.3,28.8,29.8,28.8c2.7,0,5.5-0.4,8.1-1.1L41.2,58.8z M54.2,52.7L54.2,52.7
		L54.2,52.7z"/>
</g>
<g class="st0">
	<g>
		<path fill="currentColor" d="M45.1,36.6c-2.9,0-5.2-2.4-5.2-5.2s2.4-5.2,5.2-5.2s5.2,2.4,5.2,5.2S48,36.6,45.1,36.6z M45.1,28.6
			c-1.5,0-2.8,1.2-2.8,2.8s1.2,2.8,2.8,2.8s2.8-1.2,2.8-2.8S46.6,28.6,45.1,28.6z M32.5,36.6c-2.9,0-5.2-2.4-5.2-5.2
			s2.4-5.2,5.2-5.2s5.3,2.4,5.3,5.2S35.4,36.6,32.5,36.6z M32.5,28.6c-1.5,0-2.8,1.2-2.8,2.8s1.2,2.8,2.8,2.8s2.8-1.2,2.8-2.8
			S34,28.6,32.5,28.6z M19.8,36.6c-2.9,0-5.2-2.4-5.2-5.2s2.4-5.2,5.2-5.2s5.2,2.4,5.2,5.2S22.7,36.6,19.8,36.6z M19.8,28.6
			c-1.5,0-2.8,1.2-2.8,2.8s1.2,2.8,2.8,2.8s2.8-1.2,2.8-2.8S21.3,28.6,19.8,28.6z"/>
	</g>
</g>
<g class="st0">
	<path fill="currentColor" d="M9,27.8c-0.1,0-0.3,0-0.4-0.1c-0.7-0.2-1-0.9-0.8-1.6c0.4-1.2,0.9-2.3,1.4-3.5c0.3-0.6,1.1-0.9,1.7-0.6
		c0.6,0.3,0.9,1.1,0.6,1.7c-0.5,1-0.9,2-1.3,3.1C10.1,27.4,9.6,27.8,9,27.8z"/>
</g>
<g class="st0">
	<path fill="currentColor" d="M12.7,20.5c-0.3,0-0.5-0.1-0.8-0.3c-0.6-0.4-0.7-1.2-0.2-1.8c2.8-3.7,6.6-6.8,11.2-8.9c0.6-0.3,1.4,0,1.7,0.6
		s0,1.4-0.6,1.7c-4.2,2-7.7,4.8-10.3,8.2C13.5,20.4,13.1,20.5,12.7,20.5z"/>
</g>
</svg>
