<svg width="20" height="20" viewBox="0 0 20 20" fill="none" xmlns="http://www.w3.org/2000/svg">
<rect width="20" height="20" fill="currentColor" fill-opacity="0.01"/>
<path d="M10 2C5.58156 2 2 5.58156 2 10C2 14.4184 5.58156 18 10 18C14.4181 18 18 14.4184 18 10C18 5.58156 14.4184 2 10 2ZM9.67575 8.79722C9.83983 8.90766 10.066 9.02005 10.3534 9.13438C11.0557 9.40815 11.6374 9.67608 12.0984 9.93741C12.5589 10.1991 12.9023 10.4986 13.1284 10.8357C13.3541 11.1729 13.467 11.5929 13.467 12.0957C13.467 12.8026 13.2161 13.3727 12.7143 13.8059C12.2125 14.2392 11.5397 14.4946 10.6954 14.5724V15.32H9.59371V14.5845C8.99598 14.5312 8.46206 14.3904 7.99239 14.1614C7.52228 13.9327 7.15418 13.6088 6.88722 13.1896C6.62026 12.7708 6.49134 12.2504 6.50045 11.6294L6.51434 11.5987H8.86142C8.86142 11.9296 8.91611 12.1987 9.0255 12.4048C9.13489 12.6113 9.28551 12.7626 9.47694 12.8586C9.66837 12.9547 9.88975 13.0025 10.1407 13.0025C10.346 13.0025 10.517 12.9648 10.6537 12.889C10.7905 12.8135 10.8933 12.7081 10.9615 12.5732C11.0301 12.4383 11.0639 12.2831 11.0639 12.1073C11.0639 11.8989 11.0283 11.7231 10.958 11.58C10.8873 11.4369 10.7709 11.3094 10.609 11.197C10.4471 11.0846 10.2244 10.9734 9.94184 10.8629C9.22995 10.6098 8.64524 10.3562 8.18642 10.1027C7.72803 9.84952 7.38901 9.5532 7.17024 9.21371C6.95146 8.87461 6.84164 8.44957 6.84164 7.93859C6.84164 7.24405 7.10382 6.67279 7.62863 6.2252C8.153 5.7776 8.8536 5.51706 9.72958 5.44356V4.65H10.8243V5.47428C11.6456 5.58472 12.2967 5.88727 12.7781 6.38153C13.2595 6.87618 13.4931 7.50771 13.4796 8.27574L13.5 8.32474H11.1256C11.1256 7.88764 11.0331 7.56371 10.8486 7.35294C10.6637 7.14256 10.4232 7.03717 10.1268 7.03717C9.83028 7.03717 9.59545 7.12311 9.44916 7.29461C9.30331 7.4661 9.23038 7.68893 9.23038 7.9627C9.23038 8.14275 9.26337 8.29907 9.32979 8.43168C9.3962 8.56545 9.51167 8.68678 9.67575 8.79722Z" fill="#919191"/>
</svg>
