<svg width="20" height="20" viewBox="0 0 20 20" fill="none" xmlns="http://www.w3.org/2000/svg">
<rect width="20" height="20" fill="currentColor" fill-opacity="0.01"/>
<path fill-rule="currentColor" clip-rule="currentColor" d="M12.0509 3.4279C12.0523 7.81073 12.0515 12.1936 12.0515 16.5765V16.8367H12.7891V6.20662C12.8522 6.20115 12.8968 6.19397 12.9413 6.19392C13.6741 6.19321 14.4069 6.18931 15.1396 6.19463C15.8187 6.19963 16.3212 6.57818 16.471 7.20011C16.508 7.35374 16.5166 7.51779 16.5167 7.67707C16.5193 10.6506 16.5186 13.624 16.5186 16.5974V16.8499C16.8273 16.8499 17.1217 16.847 17.4161 16.8507C17.7361 16.8546 17.9777 17.0737 17.9983 17.3712C18.0222 17.7155 17.7901 17.9832 17.4467 17.9889C16.8828 17.9981 16.3187 18.0003 15.7547 18C14.6439 17.9992 13.5332 17.9919 12.4226 17.9923C10.0789 17.9934 7.73524 17.999 5.3916 18C4.44375 18.0004 3.49585 17.9961 2.54799 17.9886C2.27904 17.9864 2.0575 17.7924 2.01093 17.5412C1.96008 17.2668 2.08951 17.0028 2.33985 16.9019C2.42889 16.8659 2.53161 16.8543 2.62852 16.8521C2.90622 16.8457 3.1841 16.8498 3.4838 16.8498V16.5898C3.4838 13.0336 3.4838 9.47733 3.48384 5.9211C3.48384 5.15595 3.75763 4.74534 4.45022 4.46234C6.35342 3.68474 8.25681 2.90775 10.1586 2.12672C11.151 1.71915 12.0506 2.33229 12.0509 3.4279ZM9.11799 14.2237H6.41967C6.03426 14.2237 5.72183 14.5431 5.72183 14.9371C5.72183 15.3311 6.03426 15.6506 6.41967 15.6506H9.11799C9.5034 15.6506 9.81584 15.3311 9.81584 14.9371C9.81584 14.5431 9.5034 14.2237 9.11799 14.2237ZM9.11799 11.5601H6.41967C6.03426 11.5601 5.72183 11.8796 5.72183 12.2736C5.72183 12.6676 6.03426 12.987 6.41967 12.987H9.11799C9.5034 12.987 9.81584 12.6676 9.81584 12.2736C9.81584 11.8796 9.5034 11.5601 9.11799 11.5601ZM9.11799 8.89662H6.41967C6.03426 8.89662 5.72183 9.21604 5.72183 9.61007C5.72183 10.0041 6.03426 10.3235 6.41967 10.3235H9.11799C9.5034 10.3235 9.81584 10.0041 9.81584 9.61007C9.81584 9.21604 9.5034 8.89662 9.11799 8.89662ZM9.11799 6.2331H6.41967C6.03426 6.2331 5.72183 6.55252 5.72183 6.94654C5.72183 7.34057 6.03426 7.65999 6.41967 7.65999H9.11799C9.5034 7.65999 9.81584 7.34057 9.81584 6.94654C9.81584 6.55252 9.5034 6.2331 9.11799 6.2331Z" fill="#919191"/>
</svg>
