<?xml version="1.0" encoding="utf-8"?>
<!-- Generator: Adobe Illustrator 27.4.1, SVG Export Plug-In . SVG Version: 6.00 Build 0)  -->
<svg version="1.1" id="Layer_1" xmlns="http://www.w3.org/2000/svg" xmlns:xlink="http://www.w3.org/1999/xlink" x="0px" y="0px"
	 viewBox="0 0 66 68" style="enable-background:new 0 0 66 68;" xml:space="preserve">
<style type="text/css">
	.st0{clip-path:url(#SVGID_00000121994220113276944960000008659109439865590437_);}
</style>
<g>
	<defs>
		<rect id="SVGID_1_" x="0.7" width="65" height="68"/>
	</defs>
	<clipPath id="SVGID_00000075882846368722322290000012606691377943295157_">
		<use xlink:href="#SVGID_1_"  style="overflow:visible;"/>
	</clipPath>
	<g style="clip-path:url(#SVGID_00000075882846368722322290000012606691377943295157_);">
		<g class="st1">
			<path class="st2" fill="currentColor" d="M33.2,0c0.2,0,0.4,0,0.8,0.1c1.7,0.3,3.2,1,4.4,2c0.6,0.5,1.3,1.1,1.9,1.6l0,0c0.7,0.6,1.4,1.2,2.1,1.8
				C42.8,5.8,43.2,6,43.8,6c3.9,0,7.9,0,11.2,0c1.2,0,1.7,0.5,1.7,1.6l0,1.9c0,2.3,0,4.7,0,7.1c0,0.5,0.2,0.9,0.6,1.2
				c0.9,0.7,1.7,1.4,2.6,2.2l0.1,0c1.5,1.2,3,2.5,4.6,3.8c0.8,0.7,1.2,1.4,1.2,2.5c0,6,0,19.7,0,27.9l0,5.8c0,0.7,0,1.3-0.1,1.9
				c-0.7,3.8-3.7,6.3-7.6,6.3l-4.7,0c-15.2,0-43.5,0-45,0c-4-0.1-7.3-3.2-7.4-7.1c0-1.8,0-11.5,0-20.1c0-6.5,0-12.5,0-14.8
				c0-0.9,0.3-1.5,1-2.1c1.5-1.2,3-2.5,4.4-3.6C7.1,19.5,8,18.7,9,17.9c0.4-0.3,0.6-0.7,0.6-1.3c0-2.2,0-4.5,0-6.7l0-2.2
				C9.5,6.3,9.9,6,11.4,6l2.7,0c2.6,0,5.6,0,8.6,0c0.4,0,0.9-0.2,1.2-0.4c1.1-0.9,2.1-1.7,3-2.4c1.5-1.4,3.3-2.7,5.6-3
				C32.8,0,33,0,33.2,0z M3.3,27.9v0.2c0,16.3,0,26.9,0,32.2c0,3.1,2.1,5.2,5.3,5.2c3.7,0,12.4,0,21.6,0c10.3,0,21.2,0,26.4,0l1.3,0
				c3.2,0,5.3-2.1,5.3-5.3c0-6.3,0-17.1,0-32.1v-0.2L63,28c-0.6,0.4-1,0.7-1,0.7L38.1,46.6c-3.2,2.4-6.6,2.4-9.8,0L3.5,28L3.3,27.9z
				 M54.2,8.5H12.1l0,11.3c0,3.6,0,7.3,0,10.9c0,0.6,0.3,0.9,0.7,1.2c3.2,2.4,6.3,4.7,9.5,7.1l7.6,5.6c1.2,0.9,2.3,1.3,3.4,1.3
				c1.1,0,2.3-0.4,3.4-1.3l4.4-3.3c4-3,8.2-6.1,12.5-9.3c0.5-0.4,0.7-0.8,0.7-1.4c0-2.8,0-5.6,0-8.4L54.2,8.5z M56.7,20.6v9l5.7-4.2
				l-5.6-4.6L56.7,20.6z M9.5,20.7l-5.6,4.6l5.6,4.1V20.7z M42.9,29.5c0.7,0,1.2,0.6,1.2,1.2c0,0.7-0.6,1.2-1.2,1.2H23.5
				c-0.7,0-1.2-0.6-1.2-1.2c0-0.7,0.6-1.2,1.2-1.2H42.9z M31.9,21.6c0.7,0,1.2,0.6,1.2,1.2c0,0.7-0.6,1.2-1.2,1.2h-8.4
				c-0.7,0-1.2-0.6-1.2-1.2c0-0.7,0.6-1.2,1.2-1.2H31.9z M33.2,2.6c1.7,0,3.3,0.9,5.1,2.8l0.5,0.5H27.7l0.5-0.5
				C29.9,3.5,31.5,2.6,33.2,2.6L33.2,2.6z"/>
		</g>
	</g>
</g>
</svg>
