<svg width="20" height="20" viewBox="0 0 20 20" fill="none" xmlns="http://www.w3.org/2000/svg">
<g clip-path="url(#clip0_8588_163574)">
<path d="M3.25153 9.38792C2.83461 9.80484 2.83461 10.4834 3.25153 10.9044C3.66846 11.3213 4.34698 11.3213 4.76799 10.9044C7.65374 8.01862 12.3502 8.01862 15.236 10.9044C15.4445 11.1128 15.7183 11.2191 15.9922 11.2191C16.266 11.2191 16.5399 11.1128 16.7484 10.9044C17.1653 10.4874 17.1653 9.80893 16.7484 9.38792C13.0288 5.66423 6.97113 5.66423 3.25153 9.38792Z" fill="currentColor" fill-opacity="0.35"/>
<path d="M6.14546 12.2818C5.72853 12.6988 5.72853 13.3773 6.14546 13.7983C6.56238 14.2152 7.2409 14.2152 7.66191 13.7983C8.94946 12.5066 11.0504 12.5066 12.338 13.7983C12.5464 14.0067 12.8203 14.113 13.0942 14.113C13.368 14.113 13.6419 14.0067 13.8503 13.7983C14.2673 13.3814 14.2673 12.7028 13.8503 12.2859C11.7289 10.1564 8.27094 10.1564 6.14546 12.2818Z" fill="currentColor" fill-opacity="0.35"/>
<path d="M10 17.5587C10.7879 17.5587 11.4265 16.9201 11.4265 16.1322C11.4265 15.3444 10.7879 14.7057 10 14.7057C9.21216 14.7057 8.57349 15.3444 8.57349 16.1322C8.57349 16.9201 9.21216 17.5587 10 17.5587Z" fill="currentColor" fill-opacity="0.35"/>
<path d="M19.6873 6.4449C14.345 1.10666 5.65502 1.10666 0.312692 6.4449C-0.104231 6.86182 -0.104231 7.54034 0.312692 7.96135C0.729614 8.37828 1.40813 8.37828 1.82914 7.96135C6.33354 3.45287 13.6665 3.45287 18.1749 7.96135C18.3834 8.16982 18.6573 8.27609 18.9311 8.27609C19.205 8.27609 19.4788 8.16982 19.6873 7.96135C20.1042 7.54443 20.1042 6.86591 19.6873 6.4449Z" fill="currentColor" fill-opacity="0.35"/>
</g>
<defs>
<clipPath id="clip0_8588_163574">
<rect width="20" height="20" fill="currentColor"/>
</clipPath>
</defs>
</svg>
